<svg id="Calque_1" data-name="Calque 1" xmlns="http://www.w3.org/2000/svg" viewBox="0 0 200 200"><defs><style>.cls-1{fill:none;stroke:#00a58c;stroke-linecap:round;stroke-miterlimit:10;stroke-width:6.4px;}</style></defs><title>icones_projet_3_hackathon</title><path class="cls-1" d="M128.64,118.42a7.51,7.51,0,0,0-8.64-.49l-12.4,6.84S95.27,115,88.38,107.52h0l-.1-.09-.09-.1h0c-7.47-6.89-17.25-19.23-17.25-19.23l6.85-12.39a7.51,7.51,0,0,0-.49-8.64L63.61,46.54c-2.45-3.42-5.38-2.77-5.38-2.77-3.75.16-14.84,10.6-14.84,10.6-5.87,5.21-4.56,9.78-4.56,9.78C42.77,92.07,72.14,119,74.38,121.33c3,2.82,29.27,31.62,57.19,35.56,0,0,4.57,1.31,9.78-4.56,0,0,10.44-11.09,10.6-14.84,0,0,.65-2.93-2.77-5.38Z"/><path class="cls-1" d="M101.47,65.07A28,28,0,0,1,128.8,92.19"/><path class="cls-1" d="M102,49.51a43.61,43.61,0,0,1,42.35,41.73"/></svg>