<svg id="Calque_1" data-name="Calque 1" xmlns="http://www.w3.org/2000/svg" viewBox="0 0 200 200"><defs><style>.cls-1{fill:#00a58c;}</style></defs><title>icones_projet_3_hackathon</title><path class="cls-1" d="M113.3,83.45H50.42a3.21,3.21,0,0,0,0,6.41h58.43A33.82,33.82,0,0,1,113.3,83.45Z"/><path class="cls-1" d="M50.42,103.83H105a33.82,33.82,0,0,1,.94-6.41H50.42a3.21,3.21,0,0,0,0,6.41Z"/><path class="cls-1" d="M50.42,117.8H107.3a33.61,33.61,0,0,1-1.8-6.41H50.42a3.21,3.21,0,0,0,0,6.41Z"/><path class="cls-1" d="M40.08,133a3.25,3.25,0,0,1-3.2-3.2v-75a3.25,3.25,0,0,1,3.2-3.2h105a3.25,3.25,0,0,1,3.2,3.2V73.48a32.92,32.92,0,0,1,7.47,3.37V54.74A10.7,10.7,0,0,0,145.1,44.07h-105A10.7,10.7,0,0,0,29.41,54.74v75a10.7,10.7,0,0,0,10.67,10.67h57.3l3.81-7.47Z"/><path class="cls-1" d="M119.66,66.52a3.21,3.21,0,0,0-3.2-3.21H68.57a3.21,3.21,0,0,0,0,6.41h47.89A3.2,3.2,0,0,0,119.66,66.52Z"/><path class="cls-1" d="M177.43,148.29,162.7,117.87a27.2,27.2,0,1,0-48,.85l-14.53,30a3.21,3.21,0,0,0,4.19,4.32l10.6-4.72,2.78,11.34a3.2,3.2,0,0,0,2.78,2.42,1.83,1.83,0,0,0,.33,0,3.2,3.2,0,0,0,2.89-1.81l13.37-27.64c.46,0,.91.07,1.37.07.74,0,1.47,0,2.2-.11l13.4,27.68a3.18,3.18,0,0,0,2.88,1.81,1.83,1.83,0,0,0,.33,0,3.2,3.2,0,0,0,2.78-2.42l2.78-11.34,10.6,4.72a3.29,3.29,0,0,0,1.3.27h.05a3.21,3.21,0,0,0,2.63-5Zm-55.58,1.22-1.58-6.43a3.24,3.24,0,0,0-1.7-2.12,3.34,3.34,0,0,0-1.41-.32,3.22,3.22,0,0,0-1.3.27l-6.11,2.72L119,124.51a27.14,27.14,0,0,0,11.53,7Zm16.63-23.18a20.8,20.8,0,1,1,20.8-20.8A20.82,20.82,0,0,1,138.48,126.33ZM162,140.91a3.2,3.2,0,0,0-4.42,2.17L156,149.51l-8.82-18.21a27.31,27.31,0,0,0,11.35-7.4l9.56,19.73Z"/><path class="cls-1" d="M138.48,91.13a14.4,14.4,0,1,0,14.39,14.4A14.4,14.4,0,0,0,138.48,91.13Zm0,22.39a8,8,0,1,1,8-8A8,8,0,0,1,138.48,113.52Z"/></svg>