<svg id="Calque_1" data-name="Calque 1" xmlns="http://www.w3.org/2000/svg" viewBox="0 0 200 200"><defs><style>.cls-1{fill:none;stroke:#00a58c;stroke-linecap:round;stroke-miterlimit:10;stroke-width:6.4px;}</style></defs><title>icones_projet_3_hackathon</title><path class="cls-1" d="M115.65,47.35a14.48,14.48,0,1,1-14.48-14.48A14.48,14.48,0,0,1,115.65,47.35Z"/><path class="cls-1" d="M112.84,166.14l0-37a11.39,11.39,0,0,0,11.33-11.39V86.51a11.41,11.41,0,0,0-11.39-11.36H89.49A11.43,11.43,0,0,0,78.13,86.57v31.27A11.45,11.45,0,0,0,89.55,129.2l0,37"/><path class="cls-1" d="M157.58,62.14A14.48,14.48,0,1,1,143.1,47.66,14.48,14.48,0,0,1,157.58,62.14Z"/><path class="cls-1" d="M148.94,166.14l-.05-30a11.41,11.41,0,0,0,11.36-11.39l0-23.16a11.42,11.42,0,0,0-11.39-11.37H135"/><path class="cls-1" d="M44.68,62.14A14.48,14.48,0,1,0,59.16,47.66,14.48,14.48,0,0,0,44.68,62.14Z"/><path class="cls-1" d="M53.32,166.14l0-30A11.42,11.42,0,0,1,42,124.78l0-23.16A11.42,11.42,0,0,1,53.42,90.25H67.23"/><line class="cls-1" x1="101" y1="91" x2="101" y2="111"/><line class="cls-1" x1="90" y1="100" x2="113" y2="100"/></svg>