<svg id="Calque_1" data-name="Calque 1" xmlns="http://www.w3.org/2000/svg" viewBox="0 0 200 200"><defs><style>.cls-1{fill:none;stroke:#00a58c;stroke-linecap:round;stroke-linejoin:round;stroke-width:6.4px;}</style></defs><title>icones_projet_3_hackathon</title><path class="cls-1" d="M115.3,41.07a12.75,12.75,0,1,1-12.75-12.75A12.74,12.74,0,0,1,115.3,41.07Z"/><path class="cls-1" d="M128.38,90.9V79.38a10,10,0,0,0-10-10H87.64a10,10,0,0,0-10,10V90.94"/><path class="cls-1" d="M160,123.12a12.75,12.75,0,1,1-12.75-12.74A12.75,12.75,0,0,1,160,123.12Z"/><path class="cls-1" d="M173.12,173V161.43a10.06,10.06,0,0,0-10-10H132.38a10.07,10.07,0,0,0-10,10V173"/><path class="cls-1" d="M70.56,123.12a12.75,12.75,0,1,1-12.75-12.74A12.75,12.75,0,0,1,70.56,123.12Z"/><path class="cls-1" d="M83.64,173V161.43a10,10,0,0,0-10-10H42.91a10.06,10.06,0,0,0-10,10V173"/><line class="cls-1" x1="103.05" y1="94.09" x2="103.05" y2="112.03"/><line class="cls-1" x1="88.41" y1="122.51" x2="102.99" y2="112.05"/><line class="cls-1" x1="117.61" y1="122.51" x2="103.03" y2="112.05"/></svg>