<svg id="Calque_1" data-name="Calque 1" xmlns="http://www.w3.org/2000/svg" viewBox="0 0 200 200"><defs><style>.cls-1{fill:none;stroke:#00a58c;stroke-linecap:round;stroke-linejoin:round;stroke-width:6.4px;}</style></defs><title>icones_projet_3_hackathon</title><line class="cls-1" x1="165.32" y1="137.23" x2="177" y2="152.08"/><path class="cls-1" d="M168.54,75.87A37.1,37.1,0,0,0,158,45.63c-14.55-14.55-38.61-14.32-53.45.53l-9.17,9.17-9.16-9.17c-14.85-14.85-38.9-15.08-53.45-.53s-14.32,38.61.53,53.45l62.1,62,19.06-19"/><path class="cls-1" d="M176.72,113.82A29.21,29.21,0,1,1,147.5,84.6,29.22,29.22,0,0,1,176.72,113.82Z"/><path class="cls-1" d="M133.62,113.81a13.91,13.91,0,0,1,8.88-13"/></svg>