<svg id="Calque_1" data-name="Calque 1" xmlns="http://www.w3.org/2000/svg" viewBox="0 0 200 200"><defs><style>.cls-1,.cls-2,.cls-3{fill:none;}.cls-1,.cls-2,.cls-3,.cls-4{stroke:#00a58c;stroke-width:6.4px;}.cls-1,.cls-3,.cls-4{stroke-miterlimit:10;}.cls-2,.cls-3{stroke-linecap:round;}.cls-2{stroke-linejoin:round;}.cls-4{fill:#394553;}</style></defs><title>icones_projet_3_hackathon</title><path class="cls-1" d="M170,130.64a21.28,21.28,0,1,1-21.28-21.27A21.28,21.28,0,0,1,170,130.64Z"/><path class="cls-1" d="M111.08,34.65h14A12.39,12.39,0,0,1,137.4,47V76c0,8.36-3,14.77-10.09,19.49l-32,22.11"/><line class="cls-2" x1="110.95" y1="27.3" x2="110.95" y2="42.09"/><path class="cls-1" d="M79.42,34.65h-14A12.39,12.39,0,0,0,53.1,47V76c0,8.36,3,14.77,10.09,19.49l32,22.11"/><line class="cls-2" x1="79.55" y1="27.3" x2="79.55" y2="42.09"/><path class="cls-3" d="M108.3,158.8c17.58,1.92,25.67-12.75,25.67-12.75"/><path class="cls-3" d="M95.33,117.66v39.92c0,19-18.1,25.24-34.17,22.3s-27.48-14.19-25.48-25.1,16.65-17.37,32.72-14.42l.34.07A29,29,0,0,1,82.44,147"/><path class="cls-4" d="M151.58,130.64a2.85,2.85,0,1,1-2.86-2.85A2.84,2.84,0,0,1,151.58,130.64Z"/></svg>