<svg id="Calque_1" data-name="Calque 1" xmlns="http://www.w3.org/2000/svg" viewBox="0 0 200 200"><defs><style>.cls-1{fill:#00a58c;}.cls-2{fill:none;stroke:#00a58c;stroke-linecap:round;stroke-miterlimit:10;stroke-width:6.4px;}</style></defs><title>icones_projet_3_hackathon</title><path class="cls-1" d="M66.58,133.09h84.16l0-99H143v0H71.11a22.11,22.11,0,0,0-22,22.14v86.22h0c0,.13,0,.25,0,.38v4.56A17.56,17.56,0,0,0,66.58,165h84.16v-7.81H66.58a9.76,9.76,0,0,1-9.72-9.77v-4.56A9.76,9.76,0,0,1,66.58,133.09Zm7.11-91.15H143v83.34H73.69ZM56.86,56.26a14.33,14.33,0,0,1,9-13.32v82.38a17.37,17.37,0,0,0-9,2.93Z"/><path class="cls-1" d="M68.11,141.16a3.91,3.91,0,0,0,0,7.81h82.74v-7.81Z"/><line class="cls-2" x1="108.13" y1="66.22" x2="108.13" y2="101"/><line class="cls-2" x1="89" y1="81.87" x2="129" y2="81.87"/></svg>